<?xml version="1.0" encoding="utf-8"?>
<!-- Generator: Adobe Illustrator 18.1.1, SVG Export Plug-In . SVG Version: 6.00 Build 0)  -->
<svg version="1.1" id="Layer_1" xmlns="http://www.w3.org/2000/svg" xmlns:xlink="http://www.w3.org/1999/xlink" x="0px" y="0px"
	 viewBox="-535 360.9 120 120" enable-background="new -535 360.9 120 120" xml:space="preserve">
	<g>
		<circle fill="#FFFFFF" cx="60" cy="60" r="60"/>
	</g>

<g>
	<path fill="#F5BA3E" d="M-419.7,421.4c0,30.7-24.8,55.5-55.5,55.5c-30.7,0-55.5-24.8-55.5-55.5c0-30.7,24.8-55.5,55.5-55.5
		C-444.6,365.9-419.7,390.7-419.7,421.4z"/>
</g>
<g>
	<rect x="-491.4" y="391.2" fill="#FFFFFF" width="11.2" height="8.8"/>
	<path fill="#FFFFFF" d="M-468,427.2c-0.6,0-1.1-0.2-1.5-0.7c-0.4-0.4-0.7-1-0.7-1.5v-22.6h17.7l7.3,31.1v1.8v13.8
		c0,0.6-0.2,1.1-0.6,1.5c-0.4,0.4-0.9,0.6-1.3,0.6h-16.8c-0.8,0-1.2-0.7-1.2-2.1v-21.7h-2.6L-468,427.2z"/>
	<path fill="#FFFFFF" d="M-482.3,427.3c0.6,0,1.1-0.2,1.5-0.7c0.4-0.4,0.7-1,0.7-1.5v-22.7h-17.7l-7.3,31.1v2v13.8
		c0,0.5,0.2,0.9,0.6,1.3c0.4,0.4,0.9,0.6,1.3,0.6h16.7c0.9,0,1.3-0.7,1.3-2v-21.8h2.6L-482.3,427.3z"/>
	<rect x="-477.6" y="402.4" fill="#FFFFFF" width="4.9" height="21.2"/>
	<rect x="-470.1" y="391.2" fill="#FFFFFF" width="12.4" height="8.8"/>
</g>
</svg>
