<?xml version="1.0" encoding="utf-8"?>
<!-- Generator: Adobe Illustrator 18.1.1, SVG Export Plug-In . SVG Version: 6.00 Build 0)  -->
<svg version="1.1" id="Layer_1" xmlns="http://www.w3.org/2000/svg" xmlns:xlink="http://www.w3.org/1999/xlink" x="0px" y="0px"
	 viewBox="-535 360.9 120 120" enable-background="new -535 360.9 120 120" xml:space="preserve">
	<g>
		<circle fill="#FFFFFF" cx="60" cy="60" r="60"/>
	</g>

<g>
	<path fill="#D571AB" d="M-419.9,421.1c0,30.7-24.8,55.5-55.5,55.5c-30.7,0-55.5-24.8-55.5-55.5c0-30.7,24.8-55.5,55.5-55.5
		C-444.7,365.6-419.9,390.5-419.9,421.1z"/>
</g>
<g>
	<g>
		<g>
			<path fill="#FFFFFF" d="M-449.6,427.8l-4.8-9c0,0,0.1-2.8,0.1-4.1c0-1.7-0.1-3.2-0.3-4.7h-3.6l0.1-1.9c0-0.2-3.1-1.6-3.1-1.6
				l-0.5-1.5c0,0,1.6-3.1,1.4-3.2l-1.7-2c-0.1-0.1-3.3,1.1-3.3,1.1l-1.4-0.7c0,0-1.1-3.3-1.3-3.3l-2.6-0.2c-0.2,0-1.5,3.1-1.5,3.1
				l-1.5,0.5c0,0-3.1-1.6-3.2-1.5l-1.9,1.7c-0.1,0.1,1.1,3.3,1.1,3.3l-0.7,1.4c0,0-3.3,1-3.3,1.2l-0.1,2.6c0,0.1,1,0.6,1.9,1h-2.2
				l0.1-0.1c0.1-0.1-1.2-2.8-1.2-2.8l0.5-1.2c0,0,2.9-1.1,2.9-1.3v-2.2c0-0.2-2.9-1.2-2.9-1.2l-0.5-1.3c0,0,1.2-2.8,1.1-2.9
				l-1.6-1.6c-0.1-0.1-2.9,1.2-2.9,1.2l-1.3-0.5c0,0-1.1-2.8-1.3-2.8h-2.3c-0.2,0-1.2,2.8-1.2,2.8l-1.3,0.5c0,0-2.8-1.2-2.9-1.1
				l-1.6,1.6c-0.1,0.1,1.2,2.8,1.2,2.8l-0.5,1.2c0,0-2.9,1.1-2.9,1.3v2.2c0,0.2,2.9,1.2,2.9,1.2l0.5,1.2c0,0-1.2,2.8-1.1,2.9l0,0
				h-2.4c-0.1,0.9-0.2,1.7-0.2,2.6c0,5,1.9,10,4.9,14.5c1.4,2.1,2.1,4.4,2.1,6.9v9.1c0,1.6,1,3,2.4,3.5l19.6,7.6
				c0.5,0.2,1.1,0.1,1.6-0.2c0.5-0.3,0.7-0.8,0.7-1.4c0-2.8,2.3-5.1,5.1-5.1c7.5,0,9.9-7.7,10.3-16.5l3.6-1.3
				c0.4-0.1,0.8-0.5,0.9-0.9C-449.4,428.7-449.4,428.2-449.6,427.8z M-490.1,406.9c-1.8,0-3.3-1.5-3.3-3.3c0-1.8,1.5-3.3,3.3-3.3
				c1.8,0,3.3,1.5,3.3,3.3C-486.8,405.4-488.3,406.9-490.1,406.9z M-466.4,410.1h-6.9c-0.7-1.5-0.4-3.2,0.9-4.3
				c1.5-1.4,3.9-1.2,5.3,0.4C-466.1,407.3-465.9,408.8-466.4,410.1z"/>
		</g>
	</g>
	<g>
		<g>
			<path fill="#FFFFFF" d="M-479.1,393l0,0.8c0,0-1.2,1.3-1.2,1.3l0.5,1.2c0,0.1,1.8-0.1,1.8-0.1l0.6,0.5c0,0,0,1.7,0.1,1.8l1.2,0.4
				c0.1,0,1.2-1.3,1.2-1.3l0.8,0c0,0,1.3,1.2,1.3,1.2l1.2-0.5c0.1,0,0-1.7,0-1.7l0.5-0.6c0,0,1.8,0,1.8-0.1l0.5-1.2
				c0-0.1-1.3-1.2-1.3-1.2l0-0.8c0,0,1.2-1.3,1.2-1.3l-0.5-1.2c0-0.1-1.8,0.1-1.8,0.1l-0.6-0.5c0,0,0-1.7-0.1-1.8l-1.2-0.4
				c-0.1,0-1.2,1.3-1.2,1.3l-0.8,0c0,0-1.3-1.2-1.3-1.2l-1.2,0.5c-0.1,0,0,1.7,0,1.7l-0.5,0.6c0,0-1.8,0-1.8,0.1l-0.5,1.2
				C-480.4,391.9-479.1,393-479.1,393z M-475.4,391.5c1-0.4,2.1,0,2.5,0.9c0.4,0.9,0,2.1-1,2.5c-1,0.4-2.1,0-2.5-0.9
				C-476.7,393.1-476.3,391.9-475.4,391.5z"/>
		</g>
	</g>
</g>
</svg>
