<?xml version="1.0" encoding="utf-8"?>
<!-- Generator: Adobe Illustrator 18.1.1, SVG Export Plug-In . SVG Version: 6.00 Build 0)  -->
<svg version="1.1" id="Layer_1" xmlns="http://www.w3.org/2000/svg" xmlns:xlink="http://www.w3.org/1999/xlink" x="0px" y="0px"
	 viewBox="-535 360.9 120 120" enable-background="new -535 360.9 120 120" xml:space="preserve">
	<g>
		<circle fill="#FFFFFF" cx="60" cy="60" r="60"/>
	</g>

<g>
	<path fill="#8AC04F" d="M-419.4,420.5c0,30.7-24.8,55.5-55.5,55.5c-30.7,0-55.5-24.8-55.5-55.5c0-30.7,24.8-55.5,55.5-55.5
		C-444.3,365-419.4,389.8-419.4,420.5z"/>
</g>
<g>
	<g>
		<path fill="#FFFFFF" d="M-430.3,399.8l-4.1,15l-4,9.9l-4,6.5l-3.9,4.3l-3.9,2.8l-3.9,1.9l-3.9,1.3l-4,0.9l-4,0.6l-4.1,0.4
			l-4.1,0.3l-4.1,0.2l-4.1,0.1l-8.2,0.4l-34.7,1c0.3,0.6,0.6,1.3,1,1.9h99c4.3-7.9,6.7-17,6.7-26.7c0-11.6-3.5-22.5-9.6-31.4
			L-430.3,399.8z"/>
	</g>
</g>
</svg>
