<?xml version="1.0" encoding="utf-8"?>
<!-- Generator: Adobe Illustrator 18.1.1, SVG Export Plug-In . SVG Version: 6.00 Build 0)  -->
<svg version="1.1" id="Layer_1" xmlns="http://www.w3.org/2000/svg" xmlns:xlink="http://www.w3.org/1999/xlink" x="0px" y="0px"
	 viewBox="-535 360.9 120 120" enable-background="new -535 360.9 120 120" xml:space="preserve">
<g>
	<circle fill="#FFFFFF" cx="-475" cy="420.9" r="60"/>
</g>
<g>
	<circle fill="#FFFFFF" cx="-475" cy="420.9" r="60"/>
</g>
<g>
	<circle fill="#676F78" cx="-475" cy="420.9" r="55.5"/>
</g>
<path fill="#FFFFFF" d="M-491.4,411.2c-0.8-2.4,0.5-5.1,2.9-5.9l27.8-9.3c2.4-0.8,5.1,0.5,5.9,2.9s-0.5,5-2.9,5.9l-27.8,9.3
	c-0.5,0.2-1,0.2-1.5,0.2C-488.9,414.3-490.7,413.1-491.4,411.2z M-487,400.4c0.5,0,1-0.1,1.5-0.2l18.5-6.2c2.4-0.8,3.7-3.4,2.9-5.9
	c-0.8-2.4-3.4-3.8-5.9-2.9l-18.5,6.2c-2.4,0.8-3.7,3.4-2.9,5.9C-490.7,399.2-488.9,400.4-487,400.4z M-482.3,433.6h9.1
	c0.1-0.5,0.1-1.1,0-1.7c-0.5-2.6-1.6-5-3.2-7l18.7-6.2c2.4-0.8,3.7-3.4,2.9-5.9c-0.8-2.4-3.4-3.7-5.9-2.9l-27.8,9.3
	c-2,0.7-3.3,2.6-3.2,4.7c0.1,2.1,1.7,3.8,3.7,4.2C-485.1,428.7-482.9,430.8-482.3,433.6z M-459.2,422.9c-7.4,0-13.3,5.8-13.8,13
	h-9.3c-2.6,0-4.6,2.1-4.6,4.6v4.6c0,2.6,2.1,4.6,4.6,4.6v4.6c0,2.6,2.1,4.6,4.6,4.6h9.3c2.6,0,4.6-2.1,4.6-4.6v-4.6
	c2.6,0,4.6-2.1,4.6-4.6v-4.6c0-2.5-2-4.5-4.5-4.6c0.4-2.1,2.2-3.8,4.5-3.8c2.6,0,4.6-2.1,4.6-4.6
	C-454.6,425-456.6,422.9-459.2,422.9z"/>
</svg>
