<?xml version="1.0" encoding="utf-8"?>
<!-- Generator: Adobe Illustrator 18.1.1, SVG Export Plug-In . SVG Version: 6.00 Build 0)  -->
<svg version="1.1" id="Layer_1" xmlns="http://www.w3.org/2000/svg" xmlns:xlink="http://www.w3.org/1999/xlink" x="0px" y="0px"
	 viewBox="-535 360.9 120 120" enable-background="new -535 360.9 120 120" xml:space="preserve">
	<g>
		<circle fill="#FFFFFF" cx="60" cy="60" r="60"/>
	</g>

<g>
	<path fill="#FFFFFF" d="M-415,420.9c0,33.1-26.9,60-60,60c-33.1,0-60-26.9-60-60c0-33.1,26.9-60,60-60
		C-441.9,360.9-415,387.8-415,420.9z"/>
</g>
<g>
	<path fill="#37B999" d="M-419.5,420.9c0,30.7-24.8,55.5-55.5,55.5c-30.7,0-55.5-24.8-55.5-55.5c0-30.7,24.8-55.5,55.5-55.5
		C-444.3,365.4-419.5,390.2-419.5,420.9z"/>
</g>
<g>
	<path fill="#FFFFFF" d="M-484.6,433.1l-9.7,15.4c-0.2,0.4-0.5,0.9-0.2,1.4l0.3,0.5h0.6c0.5,0,0.8-0.4,1.1-0.7l10.9-13.7l-1.8-4.1
		L-484.6,433.1z"/>
	<polygon fill="#FFFFFF" points="-466.3,425.2 -491.7,400.6 -491.6,435.9 -484,429.7 -482.6,428.3 -481.8,430.1 -475.6,444.6 
		-470.7,442.5 -477.3,428.2 -478.1,426.4 -476.1,426.2 	"/>
	<path fill="#FFFFFF" d="M-451.4,394.4c-0.1-1-0.6-1.8-1.4-2.4c-0.7-0.5-1.4-0.7-2.1-0.7c-1.6,0-3.1,1-4.4,2.3l-1.9,2.3
		c-0.8,1.2-1.4,2.2-1.6,2.5l-10.4,16.5l4.8,4.5l12-15.1l1.3-1.6C-453.7,401.1-451.1,397.2-451.4,394.4z M-457.1,400.7
		C-457.1,400.7-457.1,400.7-457.1,400.7l-1.5,1.4c0,0,0,0,0,0c-0.8,0.7-1.4,1.3-1.7,1.5l-2,1.7l0.8-2.5c0.2-0.7,0.7-2,1.3-3.4
		l1.3-2.6c1-1.8,2.2-3.2,3.4-3.2c0.4,0,0.7,0.1,1,0.3c0.5,0.3,0.8,0.8,0.8,1.4C-453.7,396.8-455.4,399-457.1,400.7z"/>
</g>
</svg>
