<?xml version="1.0" encoding="utf-8"?>
<!-- Generator: Adobe Illustrator 18.1.1, SVG Export Plug-In . SVG Version: 6.00 Build 0)  -->
<svg version="1.1" id="Layer_1" xmlns="http://www.w3.org/2000/svg" xmlns:xlink="http://www.w3.org/1999/xlink" x="0px" y="0px"
	 viewBox="-535 360.9 120 120" enable-background="new -535 360.9 120 120" xml:space="preserve">
	<g>
		<circle fill="#FFFFFF" cx="60" cy="60" r="60"/>
	</g>

<g>
	<path fill="#2FAEDA" d="M-419.5,421.6c0,30.7-24.8,55.5-55.5,55.5c-30.7,0-55.5-24.8-55.5-55.5c0-30.7,24.8-55.5,55.5-55.5
		C-444.3,366.1-419.5,390.9-419.5,421.6z"/>
</g>
<g>
	<g>
		<g>
			<path fill="#FFFFFF" d="M-491.1,438.2h37.5c0.1,0,0.2,0,0.3,0c0,0,0,0,0,0c0.8,0,1.5-0.6,1.5-1.4v-41c0-0.8-0.7-1.4-1.5-1.4h-0.4
				h-35.1h-2.3c-3.9,0-7,3.1-7,7c0,0.1,0,0.1,0,0.2c0,3.6,0,36.3,0,40.6c0,0.1,0,0.2,0,0.3c0,3.7,2.9,6.7,6.6,7c0.1,0,0.1,0,0.2,0
				h38c0.8,0,1.5-0.6,1.5-1.4v-5.5c0-0.8-0.7-1.4-1.5-1.4s-1.4,0.6-1.4,1.4v4h-36.4c-2.2,0-4-1.7-4.1-3.9c0,0,0-0.1,0-0.1
				c0-0.1,0-0.2,0-0.3C-495.1,439.9-493.3,438.2-491.1,438.2z M-488.5,412.7c0-0.2,3.7-1.6,3.7-1.6l0.7-1.6c0,0-1.7-3.5-1.5-3.7
				l2.1-2.1c0.1-0.1,3.8,1.4,3.8,1.4l1.7-0.7c0,0,1.4-3.6,1.6-3.6h3c0.2,0,1.7,3.6,1.7,3.6l1.7,0.7c0,0,3.6-1.6,3.7-1.5l2.1,2.1
				c0.1,0.1-1.4,3.7-1.4,3.7l0.7,1.6c0,0,3.7,1.3,3.7,1.5v2.9c0,0.2-3.7,1.6-3.7,1.6l-0.7,1.6c0,0,1.7,3.5,1.5,3.7l-2.1,2.1
				c-0.1,0.1-3.8-1.4-3.8-1.4l-1.7,0.7c0,0-1.4,3.6-1.6,3.6h-3c-0.2,0-1.7-3.6-1.7-3.6l-1.7-0.7c0,0-3.6,1.6-3.7,1.5l-2.1-2.1
				c-0.1-0.1,1.5-3.7,1.5-3.7l-0.7-1.6c0,0-3.7-1.3-3.7-1.5V412.7z"/>
		</g>
	</g>
	<g>
		<path fill="#FFFFFF" d="M-475,418.3c2.4,0,4.3-1.9,4.3-4.2c0-2.3-1.9-4.2-4.3-4.2c-2.4,0-4.3,1.9-4.3,4.2
			C-479.3,416.4-477.4,418.3-475,418.3z"/>
	</g>
</g>
</svg>
