<?xml version="1.0" encoding="utf-8"?>
<!-- Generator: Adobe Illustrator 18.1.1, SVG Export Plug-In . SVG Version: 6.00 Build 0)  -->
<svg version="1.1" id="Layer_1" xmlns="http://www.w3.org/2000/svg" xmlns:xlink="http://www.w3.org/1999/xlink" x="0px" y="0px"
	 viewBox="-535 360.9 120 120" enable-background="new -535 360.9 120 120" xml:space="preserve">
<g>
	<circle fill="#FFFFFF" cx="60" cy="60" r="60"/>
</g>
<g>
	<path fill="#EF8A43" d="M-419.7,420.6c0,30.7-24.8,55.5-55.5,55.5c-30.7,0-55.5-24.8-55.5-55.5c0-30.7,24.8-55.5,55.5-55.5
		C-444.6,365.1-419.7,389.9-419.7,420.6z"/>
</g>
<g>
	<g>
		<g>
			<path fill="#FFFFFF" d="M-455.6,394.7c0-2.1-1.7-3.7-3.7-3.7h-31.3c-2.1,0-3.7,1.7-3.7,3.7v52.5c0,2.1,1.7,3.7,3.7,3.7h31.3
				c2.1,0,3.7-1.7,3.7-3.7 M-486.7,406.6c0-0.2,3.2-1.4,3.2-1.4l0.6-1.4c0,0-1.4-3-1.3-3.1l1.8-1.8c0.1-0.1,3.3,1.2,3.3,1.2l1.4-0.6
				c0,0,1.2-3.1,1.3-3.1h2.5c0.2,0,1.4,3.1,1.4,3.1l1.4,0.6c0,0,3.1-1.4,3.2-1.3l1.8,1.8c0.1,0.1-1.2,3.2-1.2,3.2l0.6,1.4
				c0,0,3.2,1.1,3.2,1.3v2.5c0,0.2-3.2,1.4-3.2,1.4l-0.6,1.4c0,0,1.4,3,1.3,3.1l-1.8,1.8c-0.1,0.1-3.3-1.2-3.3-1.2l-1.4,0.6
				c0,0-1.2,3.1-1.3,3.1h-2.5c-0.2,0-1.4-3.1-1.4-3.1l-1.4-0.6c0,0-3.1,1.4-3.2,1.3l-1.8-1.8c-0.1-0.1,1.2-3.2,1.2-3.2l-0.6-1.4
				c0,0-3.2-1.1-3.2-1.3V406.6z"/>
		</g>
	</g>
	<g>
		<path fill="#FFFFFF" d="M-475.1,411.5c2.1,0,3.7-1.6,3.7-3.6c0-2-1.7-3.6-3.7-3.6c-2,0-3.7,1.6-3.7,3.6
			C-478.8,409.8-477.1,411.5-475.1,411.5z"/>
	</g>
</g>
<line fill="none" stroke="#EF8A43" stroke-width="2" stroke-linecap="round" stroke-miterlimit="10" x1="-488.1" y1="425.3" x2="-461.9" y2="425.3"/>
<line fill="none" stroke="#EF8A43" stroke-width="2" stroke-linecap="round" stroke-miterlimit="10" x1="-488.1" y1="430.2" x2="-461.9" y2="430.2"/>
<line fill="none" stroke="#EF8A43" stroke-width="2" stroke-linecap="round" stroke-miterlimit="10" x1="-488.1" y1="435.2" x2="-461.9" y2="435.2"/>
<line fill="none" stroke="#EF8A43" stroke-width="2" stroke-linecap="round" stroke-miterlimit="10" x1="-488.1" y1="440.1" x2="-475.2" y2="440.1"/>
</svg>
