<?xml version="1.0" encoding="utf-8"?>
<!-- Generator: Adobe Illustrator 18.1.1, SVG Export Plug-In . SVG Version: 6.00 Build 0)  -->
<svg version="1.1" id="Layer_1" xmlns="http://www.w3.org/2000/svg" xmlns:xlink="http://www.w3.org/1999/xlink" x="0px" y="0px"
	 viewBox="-535 360.9 120 120" enable-background="new -535 360.9 120 120" xml:space="preserve">
	<g>
		<circle fill="#FFFFFF" cx="60" cy="60" r="60"/>
	</g>

<g>
	<path fill="#8C7AB7" d="M-419.2,420.8c0,30.7-24.8,55.5-55.5,55.5c-30.7,0-55.5-24.8-55.5-55.5c0-30.7,24.8-55.5,55.5-55.5
		C-444,365.3-419.2,390.2-419.2,420.8z"/>
</g>
<path fill="#FFFFFF" d="M-442.4,440.6l-30.6-53.2c-1.1-1.9-2.8-1.8-3.9,0l-30.7,53.1c-1.1,1.9-0.2,3.3,2,3.3h61.3
	C-442.2,443.9-441.3,442.5-442.4,440.6z M-469.9,428.9l-6.2,8.7l-3.9-8.7h3.4l1.6-9.7l-10.4,5.8l7.7-26.3l5.7,0.6l-7,19.8l10.2-6.9
	l-5.3,16.8H-469.9z"/>
</svg>
