<?xml version="1.0" encoding="utf-8"?>
<!-- Generator: Adobe Illustrator 18.1.1, SVG Export Plug-In . SVG Version: 6.00 Build 0)  -->
<svg version="1.1" id="Layer_1" xmlns="http://www.w3.org/2000/svg" xmlns:xlink="http://www.w3.org/1999/xlink" x="0px" y="0px"
	 viewBox="-535 360.9 120 120" enable-background="new -535 360.9 120 120" xml:space="preserve">
<g>
	<path fill="#5186C5" d="M-419.5,421c0,30.7-24.8,55.5-55.5,55.5c-30.7,0-55.5-24.8-55.5-55.5c0-30.7,24.8-55.5,55.5-55.5
		C-444.3,365.5-419.5,390.3-419.5,421z"/>
</g>
<g>
	<path fill="#FFFFFF" d="M-455.3,444c-1.4,0-2.5-1.1-2.5-2.5v-2.5h2.5c3.9,0,4.9-1.3,4.9-1.3v3.8c0,1.4-1.1,2.5-2.5,2.5H-455.3z"/>
	<path fill="#FFFFFF" d="M-497.1,444c-1.4,0-2.5-1.1-2.5-2.5v-3.8c0,0,1,1.3,4.9,1.3h2.5v2.5c0,1.4-1.1,2.5-2.5,2.5H-497.1z"/>
	<g>
		<path fill="#FFFFFF" d="M-443.5,418.2c0-3.1-2.5-5.7-5.7-5.7c-2.4,0-4.5,1.5-5.3,3.7l-2.7,6c-0.2-0.1-8.3-2.7-17.6-2.7
			c-9.3,0-17.7,2.6-18,2.7l-2.6-5.7c-0.7-2.4-2.8-4.1-5.4-4.1c-3.1,0-5.7,2.5-5.7,5.7c0,2.6,1.8,4.8,4.2,5.4l1,9
			c1.1,3.8,6.6,3.9,6.6,3.9h39.3c0,0,5.5-0.1,6.6-3.9l1-9C-445.3,423-443.5,420.8-443.5,418.2z"/>
	</g>
	<path fill="#FFFFFF" d="M-500.8,409.6c3.7,0,7,2.5,8.2,6l1.2,2.8c2.4-0.9,11-1.7,16.5-1.7c5.3,0,13.8,0.8,16.2,1.6l1.4-3.2
		c1.3-3.3,4.5-5.5,8-5.5c0.3,0,0.5,0.1,0.8,0.1c0,0,0,0,0,0c0-6.5-5.3-11.8-11.8-11.8c-0.8,0-28.6,0-29.5,0
		c-6.5,0-11.8,5.3-11.8,11.8c0,0,0,0,0,0C-501.3,409.7-501,409.6-500.8,409.6z"/>
</g>
</svg>
