<?xml version="1.0" encoding="utf-8"?>
<!-- Generator: Adobe Illustrator 18.1.1, SVG Export Plug-In . SVG Version: 6.00 Build 0)  -->
<svg version="1.1" id="Layer_1" xmlns="http://www.w3.org/2000/svg" xmlns:xlink="http://www.w3.org/1999/xlink" x="0px" y="0px"
	 viewBox="-535 360.9 120 120" enable-background="new -535 360.9 120 120" xml:space="preserve">
	<g>
		<circle fill="#FFFFFF" cx="60" cy="60" r="60"/>
	</g>
<g>
	<path fill="#DB4454" d="M-419.4,421.3c0,30.7-24.8,55.5-55.5,55.5c-30.7,0-55.5-24.8-55.5-55.5c0-30.7,24.8-55.5,55.5-55.5
		C-444.2,365.8-419.4,390.7-419.4,421.3z"/>
</g>
<g>
	<g>
		<circle fill="#FFFFFF" cx="-452" cy="449.6" r="3.3"/>
	</g>
	<g>
		<path fill="#FFFFFF" d="M-457.2,443.8c0,1.6-1.3,2.8-2.8,2.8c-1.6,0-2.8-1.3-2.8-2.8c0-1.6,1.3-2.8,2.8-2.8
			C-458.4,441-457.2,442.3-457.2,443.8z"/>
	</g>
	<g>
		<path fill="#FFFFFF" d="M-463.2,450.2c0,1.1-0.9,2-2,2c-1.1,0-2-0.9-2-2c0-1.1,0.9-2,2-2C-464.1,448.2-463.2,449.1-463.2,450.2z"
			/>
	</g>
	<g>
		<circle fill="#FFFFFF" cx="-434.8" cy="436.6" r="2"/>
	</g>
	<g>
		<circle fill="#FFFFFF" cx="-481.8" cy="381.3" r="2"/>
	</g>
	<g>
		<circle fill="#FFFFFF" cx="-445" cy="428.6" r="1.1"/>
	</g>
	<g>
		<circle fill="#FFFFFF" cx="-458" cy="424.9" r="2"/>
	</g>
	<g>
		<circle fill="#FFFFFF" cx="-443.3" cy="439.9" r="3.3"/>
	</g>
	<g>
		<circle fill="#FFFFFF" cx="-440" cy="449.6" r="1.1"/>
	</g>
	<g>
		<circle fill="#FFFFFF" cx="-453.1" cy="438.5" r="1.1"/>
	</g>
	<g>
		<circle fill="#FFFFFF" cx="-486.9" cy="460" r="1.1"/>
	</g>
	<g>
		<circle fill="#FFFFFF" cx="-450.9" cy="430.9" r="3.3"/>
	</g>
	<g>
		<circle fill="#FFFFFF" cx="-479.1" cy="456" r="2.7"/>
	</g>
	<g>
		<path fill="#FFFFFF" d="M-518.9,417.2c0,1.1-0.9,2-2,2c-1.1,0-2-0.9-2-2c0-1.1,0.9-2,2-2C-519.8,415.2-518.9,416.1-518.9,417.2z"
			/>
	</g>
	<g>
		<circle fill="#FFFFFF" cx="-454.2" cy="462.2" r="1.1"/>
	</g>
	<g>
		<circle fill="#FFFFFF" cx="-437.3" cy="423.8" r="1.1"/>
	</g>
	<g>
		<circle fill="#FFFFFF" cx="-440.3" cy="412.6" r="3.3"/>
	</g>
	<g>
		<path fill="#FFFFFF" d="M-428.8,419.4c0,1.1-0.9,2-2,2c-1.1,0-2-0.9-2-2c0-1.1,0.9-2,2-2C-429.7,417.5-428.8,418.4-428.8,419.4z"
			/>
	</g>
	<g>
		<circle fill="#FFFFFF" cx="-440.3" cy="402.3" r="2"/>
	</g>
	<g>
		<circle fill="#FFFFFF" cx="-486.9" cy="378" r="2"/>
	</g>
	<g>
		<circle fill="#FFFFFF" cx="-426.6" cy="436.6" r="1.1"/>
	</g>
	<g>
		<circle fill="#FFFFFF" cx="-429.4" cy="406.7" r="1.1"/>
	</g>
	<g>
		<circle fill="#FFFFFF" cx="-442.3" cy="391.5" r="1.1"/>
	</g>
	<g>
		<circle fill="#FFFFFF" cx="-498.1" cy="385.2" r="1.1"/>
	</g>
	<g>
		<circle fill="#FFFFFF" cx="-453.1" cy="392.1" r="1.1"/>
	</g>
	<g>
		<circle fill="#FFFFFF" cx="-507.5" cy="412" r="1.1"/>
	</g>
	<g>
		<circle fill="#FFFFFF" cx="-499.1" cy="417.6" r="1.1"/>
	</g>
	<g>
		<circle fill="#FFFFFF" cx="-503.4" cy="452.7" r="3.3"/>
	</g>
	<g>
		<circle fill="#FFFFFF" cx="-469.5" cy="455.1" r="1.1"/>
	</g>
	<g>
		<circle fill="#FFFFFF" cx="-513.1" cy="454" r="1.1"/>
	</g>
	<g>
		<circle fill="#FFFFFF" cx="-509.3" cy="421.9" r="3.3"/>
	</g>
	<g>
		<circle fill="#FFFFFF" cx="-494.7" cy="458.9" r="1.1"/>
	</g>
	<g>
		<circle fill="#FFFFFF" cx="-486.9" cy="452.2" r="2"/>
	</g>
	<g>
		<circle fill="#FFFFFF" cx="-488.8" cy="439.9" r="2"/>
	</g>
	<g>
		<circle fill="#FFFFFF" cx="-488.8" cy="390.4" r="2"/>
	</g>
	<g>
		<circle fill="#FFFFFF" cx="-473.7" cy="462.2" r="1.1"/>
	</g>
	<g>
		<circle fill="#FFFFFF" cx="-453.1" cy="409.3" r="3.3"/>
	</g>
	<g>
		<circle fill="#FFFFFF" cx="-474.7" cy="449.6" r="2"/>
	</g>
	<g>
		<circle fill="#FFFFFF" cx="-501.4" cy="403.6" r="3.3"/>
	</g>
	<g>
		<circle fill="#FFFFFF" cx="-506.4" cy="433.8" r="2.9"/>
	</g>
	<g>
		<circle fill="#FFFFFF" cx="-493.6" cy="396.1" r="1.1"/>
	</g>
	<g>
		<path fill="#FFFFFF" d="M-488.2,401.6c0,1.1-0.9,2-2,2c-1.1,0-2-0.9-2-2c0-1.1,0.9-2,2-2C-489.1,399.6-488.2,400.5-488.2,401.6z"
			/>
	</g>
	<g>
		<path fill="#FFFFFF" d="M-461.8,390.2c0,1.1-0.9,2-2,2c-1.1,0-2-0.9-2-2c0-1.1,0.9-2,2-2C-462.7,388.2-461.8,389.1-461.8,390.2z"
			/>
	</g>
	<g>
		<circle fill="#FFFFFF" cx="-446.6" cy="418.9" r="1.1"/>
	</g>
	<g>
		<circle fill="#FFFFFF" cx="-515.8" cy="410.9" r="1.1"/>
	</g>
	<g>
		<circle fill="#FFFFFF" cx="-518.9" cy="430.9" r="2"/>
	</g>
	<g>
		<circle fill="#FFFFFF" cx="-507.5" cy="441.9" r="2"/>
	</g>
	<g>
		<path fill="#FFFFFF" d="M-490.5,421.4c0,1.1-0.9,2-2,2c-1.1,0-2-0.9-2-2c0-1.1,0.9-2,2-2C-491.4,419.4-490.5,420.3-490.5,421.4z"
			/>
	</g>
	<g>
		<path fill="#FFFFFF" d="M-456.5,379.3c0,1.1-0.9,2-2,2c-1.1,0-2-0.9-2-2c0-1.1,0.9-2,2-2C-457.4,377.3-456.5,378.2-456.5,379.3z"
			/>
	</g>
	<g>
		<path fill="#FFFFFF" d="M-461.8,465.3c0,1.1-0.9,2-2,2c-1.1,0-2-0.9-2-2c0-1.1,0.9-2,2-2C-462.7,463.3-461.8,464.2-461.8,465.3z"
			/>
	</g>
	<g>
		<path fill="#FFFFFF" d="M-491.4,433.8c0,1.7-1.4,3.1-3.1,3.1c-1.7,0-3.1-1.4-3.1-3.1c0-1.7,1.4-3.1,3.1-3.1
			C-492.8,430.7-491.4,432.1-491.4,433.8z"/>
	</g>
	<g>
		<circle fill="#FFFFFF" cx="-457.2" cy="402.3" r="3.3"/>
	</g>
	<g>
		<circle fill="#FFFFFF" cx="-480.9" cy="404.2" r="2"/>
	</g>
	<g>
		<circle fill="#FFFFFF" cx="-469.5" cy="383.3" r="2"/>
	</g>
	<g>
		<circle fill="#FFFFFF" cx="-475.9" cy="391.5" r="3.3"/>
	</g>
	<g>
		<circle fill="#FFFFFF" cx="-469.5" cy="402.3" r="2.6"/>
	</g>
	<g>
		<circle fill="#FFFFFF" cx="-456.7" cy="417.2" r="1.1"/>
	</g>
	<g>
		<circle fill="#FFFFFF" cx="-463.8" cy="405.6" r="2"/>
	</g>
	<g>
		<circle fill="#FFFFFF" cx="-495.8" cy="448.5" r="3.3"/>
	</g>
	<g>
		<circle fill="#FFFFFF" cx="-470.6" cy="441.7" r="3.3"/>
	</g>
	<g>
		<circle fill="#FFFFFF" cx="-505.3" cy="395" r="1.1"/>
	</g>
	<g>
		<circle fill="#FFFFFF" cx="-490.2" cy="407.9" r="1.1"/>
	</g>
	<g>
		<circle fill="#FFFFFF" cx="-513.9" cy="400.8" r="2"/>
	</g>
	<g>
		<circle fill="#FFFFFF" cx="-450.1" cy="383.3" r="2"/>
	</g>
</g>
</svg>
